<?xml version="1.0" encoding="UTF-8" standalone="no"?>
<svg
   xmlns:dc="http://purl.org/dc/elements/1.1/"
   xmlns:cc="http://creativecommons.org/ns#"
   xmlns:rdf="http://www.w3.org/1999/02/22-rdf-syntax-ns#"
   xmlns:svg="http://www.w3.org/2000/svg"
   xmlns="http://www.w3.org/2000/svg"
   xmlns:sodipodi="http://sodipodi.sourceforge.net/DTD/sodipodi-0.dtd"
   xmlns:inkscape="http://www.inkscape.org/namespaces/inkscape"
   width="210mm"
   height="297mm"
   viewBox="0 0 210 297"
   version="1.1"
   id="svg8"
   inkscape:version="1.0.2-2 (e86c870879, 2021-01-15)"
   sodipodi:docname="astronaut.svg">
  <defs
     id="defs2" />
  <sodipodi:namedview
     id="base"
     pagecolor="#ffffff"
     bordercolor="#666666"
     borderopacity="1.0"
     inkscape:pageopacity="0.0"
     inkscape:pageshadow="2"
     inkscape:zoom="0.35"
     inkscape:cx="400"
     inkscape:cy="560"
     inkscape:document-units="mm"
     inkscape:current-layer="layer1"
     inkscape:document-rotation="0"
     showgrid="false"
     inkscape:window-width="1920"
     inkscape:window-height="1017"
     inkscape:window-x="-8"
     inkscape:window-y="-8"
     inkscape:window-maximized="1" />
  <metadata
     id="metadata5">
    <rdf:RDF>
      <cc:Work
         rdf:about="">
        <dc:format>image/svg+xml</dc:format>
        <dc:type
           rdf:resource="http://purl.org/dc/dcmitype/StillImage" />
        <dc:title></dc:title>
      </cc:Work>
    </rdf:RDF>
  </metadata>
  <g
     inkscape:label="Layer 1"
     inkscape:groupmode="layer"
     id="layer1">
    <g
       id="g841"
       transform="matrix(0.26458333,0,0,0.26458333,29.104167,44.185417)">
      <path
         d="m 330,15 c -33.1,0 -60,26.9 -60,60 v 90 c 0,33.1 26.9,60 60,60 h 120 c 33.1,0 60,-26.9 60,-60 V 75 c 0,-33.1 -26.9,-60 -60,-60 z m 0,20 h 120 c 22.1,0 40,17.9 40,40 v 90 c 0,22.1 -17.9,40 -40,40 H 330 c -22.1,0 -40,-17.9 -40,-40 V 75 c 0,-22.1 17.9,-40 40,-40 z"
         id="path833" />
      <path
         d="m 390,45 c -16.5,0 -30,13.5 -30,30 v 60 c 0,16.5 13.5,30 30,30 16.5,0 30,-13.5 30,-30 V 75 c 0,-16.5 -13.5,-30 -30,-30 z m 0,20 c 5.5,0 10,4.5 10,10 v 60 c 0,5.5 -4.5,10 -10,10 -5.5,0 -10,-4.5 -10,-10 V 75 c 0,-5.5 4.5,-10 10,-10 z"
         id="path835" />
      <path
         d="m 240,225 c -33.1,0 -60,26.9 -60,60 v 210 c 0,33.1 26.9,60 60,60 h 300 c 33.1,0 60,-26.9 60,-60 V 285 c 0,-33.1 -26.9,-60 -60,-60 z m 0,20 h 300 c 22.1,0 40,17.9 40,40 v 210 c 0,22.1 -17.9,40 -40,40 H 240 c -22.1,0 -40,-17.9 -40,-40 V 285 c 0,-22.1 17.9,-40 40,-40 z"
         id="path837" />
      <path
         d="m 120,315 c -16.5,0 -30,13.5 -30,30 v 90 c 0,16.5 13.5,30 30,30 h 30 v 30 c 0,16.5 13.5,30 30,30 16.5,0 30,-13.5 30,-30 v -30 h 240 v 30 c 0,16.5 13.5,30 30,30 16.5,0 30,-13.5 30,-30 v -30 h 30 c 16.5,0 30,-13.5 30,-30 v -90 c 0,-16.5 -13.5,-30 -30,-30 z m -10,20 h 20 v 90 c 0,5.5 -4.5,10 -10,10 -5.5,0 -10,-4.5 -10,-10 z m 50,0 h 240 c 5.5,0 10,4.5 10,10 v 90 c 0,5.5 -4.5,10 -10,10 H 160 c -5.5,0 -10,-4.5 -10,-10 v -90 c 0,-5.5 4.5,-10 10,-10 z m 310,0 h 20 v 90 c 0,5.5 -4.5,10 -10,10 -5.5,0 -10,-4.5 -10,-10 z"
         id="path839" />
    </g>
  </g>
</svg>
